<?xml version="1.0" standalone="no"?><!DOCTYPE svg PUBLIC "-//W3C//DTD SVG 1.1//EN" "http://www.w3.org/Graphics/SVG/1.1/DTD/svg11.dtd"><svg t="1515239207813" class="icon" style="" viewBox="0 0 1024 1024" version="1.1" xmlns="http://www.w3.org/2000/svg" p-id="6809" xmlns:xlink="http://www.w3.org/1999/xlink" width="200" height="200"><defs><style type="text/css"></style></defs><path d="M836.079 435.89c-12.466-16.755-31.593-26.364-52.476-26.364H750.56V400.8c0-36.066-29.342-65.408-65.407-65.408H536.884c-4.813 0-8.728-3.915-8.728-8.727v-74.136c0-36.065-29.341-65.406-65.406-65.406H240.344c-36.065 0-65.406 29.342-65.406 65.406v518.945c0 36.066 29.341 65.405 65.406 65.405h454.298c14.173 0 27.674-4.47 39.044-12.931 11.37-8.46 19.532-20.107 23.604-33.68l88.963-296.54c6-20.002 2.293-41.083-10.174-57.837zM231.617 252.528c0-4.813 3.915-8.727 8.727-8.727H462.75c4.813 0 8.727 3.915 8.727 8.727v74.136c0 36.065 29.342 65.406 65.407 65.406h148.27c4.813 0 8.728 3.916 8.728 8.729v8.727H342.059c-14.172 0-27.674 4.471-39.043 12.932-11.37 8.46-19.533 20.106-23.605 33.68L231.617 615.45V252.528z m560.347 224.913L703.002 773.98a8.675 8.675 0 0 1-8.36 6.22H253.095c-3.814 0-6.024-2.204-7.002-3.52-0.976-1.312-2.454-4.063-1.358-7.716l88.963-296.54a8.673 8.673 0 0 1 8.36-6.22h441.545c3.815 0 6.025 2.204 7.002 3.518s2.454 4.064 1.358 7.719z" p-id="6810"></path></svg>