<?xml version="1.0" standalone="no"?><!DOCTYPE svg PUBLIC "-//W3C//DTD SVG 1.1//EN" "http://www.w3.org/Graphics/SVG/1.1/DTD/svg11.dtd"><svg t="1515899150652" class="icon" style="" viewBox="0 0 1024 1024" version="1.1" xmlns="http://www.w3.org/2000/svg" p-id="3501" xmlns:xlink="http://www.w3.org/1999/xlink" width="200" height="200"><defs><style type="text/css"></style></defs><path d="M883.602 435.631a122.912 122.912 0 0 0-56.351-39.304l-59.758-143.86c-15.04-36.212-50.956-63.522-83.492-63.522H340.08c-16.134 0-33.791 6.866-49.602 19.343a112.403 112.403 0 0 0-33.883 44.18L196.83 396.275c-49.796 16.595-83.378 63.201-83.359 115.689v222.699h113.107v28.612c0 39.644 32.138 71.782 71.781 71.782 39.645 0 71.782-32.139 71.782-71.782v-28.612h283.723v28.612c0 39.644 32.138 71.782 71.783 71.782s71.781-32.139 71.781-71.782v-28.612h113.099v-222.69a122.15 122.15 0 0 0-26.925-76.342zM867.469 691.63H754.407v71.634c0.025 15.919-12.84 28.848-28.755 28.906-15.757 0.126-28.629-12.548-28.754-28.3v-72.231H327.119v71.635c0.026 15.914-12.839 28.848-28.754 28.906-15.748 0.13-28.63-12.53-28.753-28.284-0.005-0.21 0-0.416 0-0.622v-71.635H156.495V511.971a78.028 78.028 0 0 1 17.407-49.469 79.234 79.234 0 0 1 43.722-27.427l11.526-2.688 3.936-11.16c0.171-0.476 0.358-0.968 0.565-1.461l62.652-150.825c8.821-21.144 30.333-36.973 43.776-36.973H684c16.249 0 36.498 19.531 43.757 37l62.654 150.87c0.196 0.484 0.386 0.977 0.565 1.46l3.915 11.088 11.51 2.688a79.449 79.449 0 0 1 43.687 27.535 77.92 77.92 0 0 1 17.416 49.361l-0.035 179.66zM317.395 415.778a21.531 21.531 0 0 0 6.552 1.013h382.076c11.879 0.007 21.517-9.621 21.521-21.501a21.426 21.426 0 0 0-1.229-7.182l-30.195-85.841c-8.965-25.536-34.33-42.692-63.075-42.692H393.86a69.13 69.13 0 0 0-39.169 11.939 62.658 62.658 0 0 0-24.525 32.563l-26.744 84.676c-3.605 11.321 2.651 23.419 13.973 27.025z m53.789-98.695c2.688-8.506 12.001-14.44 22.658-14.44h239.193c10.353 0 19.603 5.737 22.488 13.947l20.123 57.186H353.274l17.91-56.693z m-72.828 148.342c-46.582 0-84.345 37.761-84.345 84.344 0 46.582 37.763 84.346 84.345 84.346s84.344-37.764 84.344-84.346c-0.053-46.561-37.783-84.291-84.344-84.344z m0 125.673c-22.819 0-41.321-18.5-41.321-41.32 0-22.819 18.502-41.319 41.321-41.319 22.821 0 41.321 18.5 41.321 41.319-0.027 22.812-18.509 41.293-41.321 41.32z m427.288-125.673c-46.582 0-84.343 37.761-84.343 84.344 0 46.582 37.761 84.346 84.343 84.346s84.343-37.764 84.343-84.346c-0.053-46.561-37.784-84.291-84.343-84.344z m0 125.673c-22.822 0-41.321-18.5-41.321-41.32 0-22.819 18.499-41.319 41.321-41.319 22.82 0 41.32 18.5 41.32 41.319-0.028 22.812-18.511 41.293-41.32 41.32z" p-id="3502"></path></svg>