<?xml version="1.0" standalone="no"?><!DOCTYPE svg PUBLIC "-//W3C//DTD SVG 1.1//EN" "http://www.w3.org/Graphics/SVG/1.1/DTD/svg11.dtd"><svg t="1516706317885" class="icon" style="" viewBox="0 0 1024 1024" version="1.1" xmlns="http://www.w3.org/2000/svg" p-id="6325" xmlns:xlink="http://www.w3.org/1999/xlink" width="32" height="32"><defs><style type="text/css"></style></defs><path d="M514.988 494.459c69.503 0 118.657-18.932 147.479-56.757h-44.69c-19.877 16.7-53.636 24.474-101.314 23.376-87.395 0-131.592-38.392-132.576-115.195 5.957-84.577 52.633-129.646 140.028-135.225 77.466 2.251 117.692 37.296 120.681 105.173-1.003 53.428-14.903 81.267-41.721 83.479-12.918 0-18.384-9.438-16.379-28.388 2.97-34.478 6.922-73.456 11.915-116.86h-47.679l-2.969 23.376c-2.988-17.797-16.397-26.724-40.227-26.724-51.65 4.464-79.963 38.411-84.918 101.844 0.984 46.752 22.336 71.792 64.057 75.14 27.802 0 46.677-12.785 56.605-38.411 1.986 24.491 18.364 37.313 49.173 38.411 65.55-2.232 98.799-40.076 99.801-113.532-6.96-87.905-64.057-134.108-171.31-138.571-116.198 6.676-178.779 63.451-187.706 170.288 2.971 95.734 63.547 145.248 181.75 148.576z m-13.409-100.16c-19.877 1.115-29.313-12.236-28.312-40.076 0.983-43.403 14.902-65.645 41.721-66.779 18.855 1.135 28.785 12.274 29.787 33.399 0 47.867-14.411 72.358-43.196 73.456z m320.283-10.686h-38.733L512 654.742 240.871 383.613h-38.733c-21.392 0-38.733 17.34-38.733 38.732v387.327c0 21.39 17.341 38.732 38.733 38.732h619.724c21.392 0 38.732-17.343 38.732-38.732V422.346c0.001-21.393-17.34-38.733-38.732-38.733z" p-id="6326"></path></svg>