<?xml version="1.0" standalone="no"?><!DOCTYPE svg PUBLIC "-//W3C//DTD SVG 1.1//EN" "http://www.w3.org/Graphics/SVG/1.1/DTD/svg11.dtd"><svg t="1523780888399" class="icon" style="" viewBox="0 0 1024 1024" version="1.1" xmlns="http://www.w3.org/2000/svg" p-id="7158" xmlns:xlink="http://www.w3.org/1999/xlink" width="32" height="32"><defs><style type="text/css"></style></defs><path d="M903.843 493.409L534.111 123.677c-0.112-0.112-0.23-0.217-0.344-0.327a30.115 30.115 0 0 0-1.452-1.57c-11.715-11.716-30.711-11.716-42.427 0L120.157 491.51c-11.716 11.717-11.716 30.71 0 42.427 5.858 5.857 13.536 8.787 21.214 8.787s15.355-2.93 21.213-8.787L511.052 185.47l350.365 350.364c5.857 5.859 13.535 8.787 21.213 8.787s15.355-2.928 21.213-8.787c11.716-11.715 11.716-30.709 0-42.425z m-94.876 38.796c0-16.569-13.432-30-30-30s-30 13.43-30 30c0 0.258 0.013 0.514 0.02 0.771v318.03h-129.74V671.351c0-16.568-13.432-30-30-30H434.754c-16.568 0-30 13.432-30 30v179.656h-129.74v-318.65h-0.037c-0.481-16.147-13.713-29.09-29.977-29.09s-29.495 12.943-29.977 29.09h-0.01v0.369c-0.003 0.18-0.014 0.359-0.014 0.54s0.011 0.36 0.014 0.54v347.2c0 16.568 13.432 30 30 30h189.74c16.568 0 30-13.432 30-30V701.351h94.492v179.656c0 16.568 13.432 30 30 30h189.74c16.568 0 30-13.432 30-30v-348.65h-0.023c0.001-0.051 0.005-0.101 0.005-0.152z m-76.974-262.324c0.11 0 0.222 0 0.331-0.002l44.876-0.485v67.886c0 16.568 13.432 30 30 30s30-13.432 30-30v-98c0-15.111-11.175-27.607-25.71-29.689-1.779-0.33-3.61-0.51-5.483-0.51-0.11 0-0.222 0-0.331 0.002l-74 0.801c-16.568 0.18-29.854 13.755-29.674 30.322 0.178 16.457 13.574 29.675 29.991 29.675z" p-id="7159" fill="#00bbca"></path></svg>