<?xml version="1.0" standalone="no"?><!DOCTYPE svg PUBLIC "-//W3C//DTD SVG 1.1//EN" "http://www.w3.org/Graphics/SVG/1.1/DTD/svg11.dtd"><svg t="1516104936927" class="icon" style="" viewBox="0 0 1024 1024" version="1.1" xmlns="http://www.w3.org/2000/svg" p-id="3501" xmlns:xlink="http://www.w3.org/1999/xlink" width="200" height="200"><defs><style type="text/css"></style></defs><path d="M554.427 512l275.674-275.674c5.858-5.858 8.787-13.536 8.787-21.213s-2.929-15.355-8.787-21.213c-11.715-11.716-30.711-11.716-42.426 0L512 469.574 236.326 193.899c-11.716-11.716-30.711-11.716-42.427 0-5.858 5.858-8.787 13.536-8.787 21.213s2.929 15.355 8.787 21.213L469.573 512 193.899 787.675c-5.858 5.857-8.787 13.535-8.787 21.213s2.929 15.355 8.787 21.213c5.858 5.858 13.536 8.787 21.213 8.787s15.355-2.929 21.213-8.787L512 554.427l275.675 275.674c5.857 5.858 13.535 8.787 21.213 8.787s15.355-2.929 21.213-8.787c5.858-5.857 8.787-13.535 8.787-21.213s-2.929-15.355-8.787-21.213L554.427 512z" p-id="3502"></path></svg>