<?xml version="1.0" standalone="no"?><!DOCTYPE svg PUBLIC "-//W3C//DTD SVG 1.1//EN" "http://www.w3.org/Graphics/SVG/1.1/DTD/svg11.dtd"><svg t="1519629786321" class="icon" style="" viewBox="0 0 1024 1024" version="1.1" xmlns="http://www.w3.org/2000/svg" p-id="4338" xmlns:xlink="http://www.w3.org/1999/xlink" width="200" height="200"><defs><style type="text/css"></style></defs><path d="M727.205 712.54c-19.298 0-34.942 15.644-34.942 34.942v8.815c-0.037 12.835-10.431 23.229-23.266 23.27h-69.8v-84.903s-64.95-56.401-64.95-100.153c0-88.417 64.95-96.569 64.95-96.569V363.849h-69.801v415.717h-69.793V363.849h-69.801v415.717h-69.8c-12.835-0.04-23.233-10.435-23.27-23.27V290.969h395.529V463.66l0.093-0.003a38.374 38.374 0 0 0-0.093 2.492c0 19.298 15.644 34.942 34.942 34.942 19.298 0 34.942-15.644 34.942-34.942 0-0.778-0.035-1.573-0.085-2.374V314.234h46.535c12.835-0.037 23.229-10.431 23.27-23.265v-46.535c-0.041-12.835-10.435-23.229-23.27-23.266H552.669c-0.073-25.669-20.866-46.461-46.535-46.535h-23.265c-25.67 0.073-46.457 20.866-46.535 46.535H180.407c-12.835 0.037-23.229 10.431-23.266 23.266v46.535c0.037 12.834 10.431 23.228 23.266 23.265h46.535v488.597c0.073 25.67 20.865 46.458 46.535 46.535h442.055c25.669-0.077 46.458-20.865 46.531-46.535v-53.035c0.05-0.766 0.085-1.536 0.085-2.314-0.001-19.298-15.645-34.942-34.943-34.942z m105.74-221.814L679.47 644.202l-69.09-80.382c-8.418-6.505-40.118 25.023-33.386 31.753l90.591 94.05c5.542 5.542 13.36 6.51 19.706 2.926a17.72 17.72 0 0 0 4.324-3.186l174.173-174.782c6.73-6.73-19.933-37.015-32.843-23.855z" p-id="4339"></path></svg>