<?xml version="1.0" standalone="no"?><!DOCTYPE svg PUBLIC "-//W3C//DTD SVG 1.1//EN" "http://www.w3.org/Graphics/SVG/1.1/DTD/svg11.dtd"><svg t="1515898944852" class="icon" style="" viewBox="0 0 1024 1024" version="1.1" xmlns="http://www.w3.org/2000/svg" p-id="3018" xmlns:xlink="http://www.w3.org/1999/xlink" width="200" height="200"><defs><style type="text/css"></style></defs><path d="M795.666618 523.456936 795.666618 523.456936c-19.308765 0-34.675754 16.526395-34.675754 35.871999l0 314.844711L262.986623 874.173646 262.986623 559.328935c0-19.345604-15.388479-35.871999-34.180474-35.871999-19.039635 0-34.901905 16.526395-34.901905 35.871999l0 350.71364c0 20.09671 15.863293 35.871999 34.901905 35.871999l566.859445 0c19.039635 0 34.181497-15.775288 34.181497-35.871999L829.847092 559.328935C829.848115 539.983331 814.70523 523.456936 795.666618 523.456936L795.666618 523.456936zM948.974259 518.364965 948.974259 518.364965 536.885783 89.312118l-0.720408-0.539282c-13.181207-14.249539-35.149545-14.249539-48.353264 0L75.024717 518.364965c-13.428847 13.967106-13.428847 36.642548 0 50.634214 13.407358 14.227026 35.127032 14.227026 48.556902 0l388.407124-404.660296 388.655787 404.660296c13.157671 14.227026 35.149545 14.227026 48.330752 0C962.403107 555.007513 962.403107 532.332071 948.974259 518.364965L948.974259 518.364965z" p-id="3019" fill="#DAE0E6"></path></svg>