<?xml version="1.0" standalone="no"?><!DOCTYPE svg PUBLIC "-//W3C//DTD SVG 1.1//EN" "http://www.w3.org/Graphics/SVG/1.1/DTD/svg11.dtd"><svg t="1519637396184" class="icon" style="" viewBox="0 0 1024 1024" version="1.1" xmlns="http://www.w3.org/2000/svg" p-id="6937" xmlns:xlink="http://www.w3.org/1999/xlink" width="200" height="200"><defs><style type="text/css"></style></defs><path d="M211.468 279.034h601.064c16.568 0 30-13.431 30-30 0-16.568-13.432-30-30-30H211.468c-16.568 0-30 13.432-30 30 0 16.57 13.431 30 30 30z m601.064 465.932H211.468c-16.568 0-30 13.432-30 30s13.432 30 30 30h601.064c16.568 0 30-13.432 30-30s-13.431-30-30-30z m0-187.833H587.133c-16.568 0-30 13.432-30 30s13.432 30 30 30h225.399c16.568 0 30-13.432 30-30s-13.431-30-30-30zM211.468 542H364.44l-23.92 23.92c-5.858 5.857-8.787 13.535-8.787 21.213s2.929 15.355 8.787 21.213c5.858 5.858 13.534 8.787 21.213 8.787 7.677 0 15.356-2.93 21.214-8.787l75.133-75.133 0.004-0.004c0.349-0.349 0.688-0.706 1.018-1.07 0.163-0.18 0.316-0.364 0.473-0.546 0.162-0.188 0.326-0.372 0.484-0.563 0.191-0.233 0.373-0.473 0.558-0.71 0.112-0.146 0.228-0.289 0.338-0.437 0.196-0.265 0.384-0.533 0.569-0.802 0.09-0.129 0.183-0.256 0.27-0.387 0.188-0.277 0.363-0.559 0.54-0.841 0.082-0.132 0.166-0.262 0.246-0.395 0.167-0.277 0.325-0.558 0.481-0.838 0.084-0.148 0.168-0.296 0.248-0.445 0.143-0.265 0.277-0.533 0.411-0.802 0.087-0.175 0.176-0.348 0.26-0.524 0.116-0.245 0.225-0.492 0.333-0.739 0.093-0.208 0.186-0.415 0.272-0.625 0.091-0.221 0.176-0.441 0.262-0.664 0.094-0.242 0.188-0.483 0.274-0.729 0.07-0.194 0.134-0.391 0.199-0.586 0.092-0.274 0.183-0.549 0.267-0.827 0.052-0.173 0.099-0.347 0.147-0.521 0.084-0.299 0.168-0.6 0.244-0.902 0.039-0.162 0.074-0.325 0.112-0.488 0.072-0.313 0.144-0.626 0.206-0.942 0.032-0.165 0.059-0.33 0.088-0.495 0.057-0.313 0.113-0.626 0.16-0.942 0.027-0.189 0.047-0.38 0.072-0.57 0.037-0.291 0.076-0.581 0.104-0.874 0.024-0.258 0.04-0.516 0.059-0.773 0.017-0.229 0.038-0.457 0.05-0.688 0.023-0.494 0.037-0.989 0.037-1.484s-0.014-0.99-0.037-1.485c-0.012-0.23-0.033-0.458-0.05-0.688-0.019-0.258-0.034-0.516-0.059-0.772-0.028-0.294-0.067-0.584-0.104-0.875-0.025-0.189-0.045-0.38-0.072-0.569-0.047-0.316-0.104-0.63-0.16-0.942-0.029-0.165-0.056-0.331-0.088-0.495a32.13 32.13 0 0 0-0.206-0.942c-0.038-0.163-0.073-0.326-0.112-0.489a29.002 29.002 0 0 0-0.244-0.9c-0.049-0.175-0.096-0.349-0.148-0.522a26.462 26.462 0 0 0-0.266-0.826c-0.065-0.195-0.129-0.392-0.199-0.587-0.087-0.244-0.181-0.486-0.274-0.728a28.555 28.555 0 0 0-0.262-0.664c-0.087-0.21-0.18-0.417-0.271-0.625a25.8 25.8 0 0 0-0.335-0.74c-0.083-0.175-0.171-0.348-0.258-0.521-0.134-0.27-0.27-0.539-0.412-0.806-0.08-0.147-0.163-0.293-0.245-0.439a31.074 31.074 0 0 0-0.485-0.844c-0.078-0.13-0.161-0.258-0.242-0.387a27.684 27.684 0 0 0-0.544-0.85c-0.085-0.126-0.174-0.249-0.261-0.374a28.08 28.08 0 0 0-0.58-0.814c-0.104-0.14-0.213-0.275-0.318-0.413-0.19-0.246-0.379-0.493-0.578-0.734-0.145-0.176-0.296-0.345-0.443-0.517-0.17-0.198-0.337-0.397-0.513-0.592a31.561 31.561 0 0 0-0.854-0.899c-0.057-0.057-0.107-0.115-0.164-0.172l-75.133-75.133c-11.716-11.716-30.711-11.716-42.427 0-5.858 5.858-8.787 13.536-8.787 21.214s2.929 15.355 8.787 21.213L364.44 482H211.468c-16.568 0-30 13.432-30 30s13.431 30 30 30z m601.064-135.133H587.133c-16.568 0-30 13.432-30 30s13.432 30 30 30h225.399c16.568 0 30-13.432 30-30s-13.431-30-30-30z" p-id="6938"></path></svg>