<?xml version="1.0" standalone="no"?><!DOCTYPE svg PUBLIC "-//W3C//DTD SVG 1.1//EN" "http://www.w3.org/Graphics/SVG/1.1/DTD/svg11.dtd"><svg t="1517227184113" class="icon" style="" viewBox="0 0 1024 1024" version="1.1" xmlns="http://www.w3.org/2000/svg" p-id="5384" xmlns:xlink="http://www.w3.org/1999/xlink" width="32" height="32"><defs><style type="text/css"></style></defs><path d="M524.672 175.76L320.026 307.19H217.933c-56.729 0-102.707 45.414-102.707 102.298v205.003c0 56.525 45.415 102.298 102.707 102.298h102.093l204.646 131.328c28.928 12.544 51.354-0.87 51.354-29.338V205.097c-0.001-28.518-22.989-41.574-51.354-29.337z m172.441 165.171c-9.625-10.343-25.855-10.906-36.146-1.229-10.343 9.677-10.855 25.856-1.229 36.198 4.762 5.12 12.901 16.436 21.299 33.536 14.336 29.184 22.988 63.437 22.988 102.554 0 39.117-8.652 73.42-22.988 102.553-8.397 17.101-16.537 28.416-21.299 33.536-9.678 10.342-9.114 26.521 1.229 36.198 10.342 9.677 26.521 9.114 36.198-1.229 8.039-8.601 19.098-23.961 29.85-45.926 17.664-35.942 28.211-77.824 28.211-125.183 0-47.36-10.547-89.242-28.211-125.184-10.803-21.863-21.864-37.274-29.902-45.824z m156.98-31.693c-20.685-35.021-41.574-59.29-56.217-72.346-10.548-9.42-26.728-8.499-36.148 2.1-9.42 10.598-8.499 26.726 2.101 36.147 2.405 2.15 7.219 6.963 13.67 14.438 11.059 12.8 22.118 28.058 32.512 45.671 29.747 50.483 47.616 109.516 47.616 176.742 0 67.225-17.869 126.258-47.667 176.793-10.395 17.612-21.504 32.87-32.512 45.67-6.451 7.476-11.265 12.288-13.672 14.438-10.547 9.421-11.468 25.6-2.099 36.147 9.37 10.547 25.601 11.468 36.147 2.1 14.644-13.057 35.532-37.274 56.218-72.347 34.202-58.009 54.732-125.849 54.732-202.802 0.052-76.901-20.479-144.741-54.681-202.751z" p-id="5385"></path></svg>