<?xml version="1.0" standalone="no"?><!DOCTYPE svg PUBLIC "-//W3C//DTD SVG 1.1//EN" "http://www.w3.org/Graphics/SVG/1.1/DTD/svg11.dtd"><svg t="1515899289949" class="icon" style="" viewBox="0 0 1024 1024" version="1.1" xmlns="http://www.w3.org/2000/svg" p-id="4149" xmlns:xlink="http://www.w3.org/1999/xlink" width="200" height="200"><defs><style type="text/css"></style></defs><path d="M838.851 563.713H698.299c5.371-13.77-0.12-29.73-13.403-37.1a353.45 353.45 0 0 0-55.175-24.674c46.001-35.393 75.705-90.971 75.705-153.364 0-106.655-86.771-193.426-193.426-193.426S318.575 241.92 318.575 348.575c0 62.38 29.69 117.946 75.672 153.34a356.654 356.654 0 0 0-21.158 8.141c-42.497 17.976-80.657 43.7-113.42 76.464-32.763 32.763-58.489 70.923-76.464 113.42-18.616 44.014-28.056 90.75-28.056 138.911 0 16.568 13.432 30 30 30H838.85c16.568 0 30-13.432 30-30V593.713c0.001-16.568-13.431-30-29.999-30zM378.575 348.575c0-73.571 59.854-133.426 133.425-133.426 73.571 0 133.426 59.854 133.426 133.426C645.426 422.146 585.571 482 512 482c-73.57 0-133.425-59.854-133.425-133.425zM482 593.713v215.138H216.654C231.734 659.195 358.437 542 512 542a297.83 297.83 0 0 1 111.578 21.713H512c-16.568 0-30 13.432-30 30z m326.851 215.138H542V623.713h266.851v185.138zM634.569 705.426h81.713c16.568 0 30-13.432 30-30s-13.432-30-30-30h-81.713c-16.568 0-30 13.432-30 30s13.432 30 30 30z m0 81.712h81.713c16.568 0 30-13.432 30-30s-13.432-30-30-30h-81.713c-16.568 0-30 13.432-30 30s13.432 30 30 30z" p-id="4150"></path></svg>