<?xml version="1.0" standalone="no"?><!DOCTYPE svg PUBLIC "-//W3C//DTD SVG 1.1//EN" "http://www.w3.org/Graphics/SVG/1.1/DTD/svg11.dtd"><svg t="1515493664754" class="icon" style="" viewBox="0 0 1024 1024" version="1.1" xmlns="http://www.w3.org/2000/svg" p-id="5609" xmlns:xlink="http://www.w3.org/1999/xlink" width="200" height="200"><defs><style type="text/css"></style></defs><path d="M843.137 730.353H180.863c-16.569 0-30 13.432-30 30s13.431 30 30 30h662.273c16.568 0 30-13.432 30-30s-13.431-30-29.999-30z m0-248.353H180.863c-16.569 0-30 13.431-30 30 0 16.568 13.431 30 30 30h662.273c16.568 0 30-13.432 30-30 0.001-16.569-13.431-30-29.999-30zM180.863 293.647h662.273c16.568 0 30-13.431 30-30s-13.432-30-30-30H180.863c-16.569 0-30 13.431-30 30s13.431 30 30 30z" p-id="5610"></path></svg>