<?xml version="1.0" standalone="no"?><!DOCTYPE svg PUBLIC "-//W3C//DTD SVG 1.1//EN" "http://www.w3.org/Graphics/SVG/1.1/DTD/svg11.dtd"><svg t="1521447354474" class="icon" style="" viewBox="0 0 1024 1024" version="1.1" xmlns="http://www.w3.org/2000/svg" p-id="3827" xmlns:xlink="http://www.w3.org/1999/xlink" width="200" height="200"><defs><style type="text/css"></style></defs><path d="M839.092 472.918h-56.643a276.446 276.446 0 0 0 4.869-51.773c0-73.54-28.639-142.679-80.639-194.679-52-52.001-121.139-80.639-194.68-80.639-73.54 0-142.678 28.638-194.679 80.639-52.001 52-80.639 121.139-80.639 194.679a276.53 276.53 0 0 0 4.869 51.773h-56.641c-16.569 0-30 13.432-30 30v345.256c0 16.568 13.431 30 30 30h654.183c16.568 0 30-13.432 30-30V502.918c0-16.568-13.432-30-30-30zM512 205.827c118.727 0 215.319 96.591 215.319 215.318 0 17.59-2.111 34.927-6.27 51.773H302.95c-4.158-16.846-6.269-34.183-6.269-51.773 0-118.727 96.592-215.318 215.319-215.318z m297.092 612.347H214.909V532.918h63.266c0.83 0.07 1.664 0.111 2.503 0.111 0.853 0 1.708-0.037 2.567-0.111H742.19c0.701 0.027 1.398 0.021 2.096 0h64.807v285.256zM512 595.576c-16.568 0-30 13.432-30 30v81.773c0 16.568 13.432 30 30 30 16.569 0 30-13.432 30-30v-81.773c0-16.568-13.432-30-30-30z" p-id="3828"></path></svg>