<?xml version="1.0" standalone="no"?><!DOCTYPE svg PUBLIC "-//W3C//DTD SVG 1.1//EN" "http://www.w3.org/Graphics/SVG/1.1/DTD/svg11.dtd"><svg t="1515898173579" class="icon" style="" viewBox="0 0 1024 1024" version="1.1" xmlns="http://www.w3.org/2000/svg" p-id="1526" xmlns:xlink="http://www.w3.org/1999/xlink" width="200" height="200"><defs><style type="text/css"></style></defs><path d="M877.34784 177.1776H146.65216C102.5024 177.1776 66.56 213.12 66.56 257.27488v508.86656c0 44.16 35.9424 80.1024 80.09216 80.1024h28.83072c2.93376 0.11776 5.93408 0.18944 9.06752 0.18944 3.328 0 6.13376-0.07168 8.15104-0.18944 1.4336 0.06144 2.87232 0.06144 4.30592 0.06144a94.208 94.208 0 0 0 5.34528-0.128l319.78496 0.5888c0.97792 0.06144 2.6112 0.06144 4.7616 0.06144 2.54976 0 6.26176-0.06144 10.50112-0.38912h5.74976c1.88928 0 4.81792-0.07168 8.41216-0.26112h325.79072c44.14976 0 80.09216-35.9424 80.09216-80.1024V257.27488c-0.00512-44.15488-35.94752-80.09728-80.09728-80.09728z m-327.15776 613.29408h-12.65664l-1.36704 0.128c-0.27136 0-0.5888 0.07168-0.84992 0.07168l-341.12-0.32768h-1.11104l-1.10592 0.06144H177.03936c-5.08416-0.32256-8.99584-0.91136-11.6736-1.5616 2.0224-28.6976 15.1296-68.67968 46.89408-103.31648 25.96352-28.30336 73.30816-62.02368 151.90528-62.02368 78.72512 0 126.59712 33.78176 152.88832 62.16192 32.02048 34.56 45.3888 74.15808 47.61088 102.65088-3.65056 0.98304-8.66816 1.7664-14.47424 2.15552z m351.47776-24.33024a24.32 24.32 0 0 1-24.32 24.33024h-256.78848c-0.8448-22.10816-6.1952-45.7216-15.51872-68.80768-10.89024-26.86976-27.20256-52.43904-47.1552-73.90208-33.85344-36.4544-94.96064-79.95904-193.77664-79.95904-98.81088 0-159.46752 43.56608-192.99328 80.09216-21.52448 23.48032-38.2208 51.12832-48.78336 79.7696V257.27488a24.33024 24.33024 0 0 1 24.32512-24.33024H877.4144a24.33536 24.33536 0 0 1 24.33024 24.33024v508.86656h-0.0768zM365.86496 289.16736c-72.91392 0-132.20352 59.28448-132.20352 132.20352 0 72.92416 59.2896 132.20864 132.20352 132.20864 72.92416 0 132.20864-59.2896 132.20864-132.20864 0.00512-72.91904-59.35104-132.20352-132.20864-132.20352z m0 208.64512c-42.13248 0-76.43648-34.30912-76.43648-76.44672 0-42.13248 34.304-76.43648 76.43648-76.43648s76.4416 34.30912 76.4416 76.43648c0.00512 42.14272-34.304 76.44672-76.4416 76.44672zM568.58624 288.256h277.06368v55.76704h-277.06368V288.256z m0 111.52896h277.06368v55.76192h-277.06368V399.78496z m0 111.53408h168.14592v55.76192h-168.14592V511.31904z" fill="#DAE0E6" p-id="1527"></path></svg>