<?xml version="1.0" standalone="no"?><!DOCTYPE svg PUBLIC "-//W3C//DTD SVG 1.1//EN" "http://www.w3.org/Graphics/SVG/1.1/DTD/svg11.dtd"><svg t="1515811959115" class="icon" style="" viewBox="0 0 1024 1024" version="1.1" xmlns="http://www.w3.org/2000/svg" p-id="11227" xmlns:xlink="http://www.w3.org/1999/xlink" width="200" height="200"><defs><style type="text/css"></style></defs><path d="M416.233472 831.264768c0-20.768768-16.836608-37.603328-37.60128-37.603328H94.660608c-20.764672 0-37.60128 16.83456-37.60128 37.603328 0 6.54336 1.675264 12.695552 4.61824 18.055168H7.671808v77.961216h457.947136v-77.961216h-54.003712a37.425152 37.425152 0 0 0 4.61824-18.055168zM367.910912 188.35456l239.937536 152.36096c18.659328 9.508864 41.838592 3.436544 53.28896-14.600192l11.513856-18.1248c12.163072-19.156992 6.494208-44.544-12.658688-56.70912L426.676224 103.124992c-19.152896-12.163072-44.539904-6.496256-56.705024 12.660736l-11.513856 18.126848c-11.44832 18.034688-7.090176 41.596928 9.453568 54.441984zM1016.221696 770.414592l-0.167936-3.629056-0.29696-3.422208c-0.155648-2.340864-0.483328-4.42368-0.768-6.56384a105.562112 105.562112 0 0 0-5.517312-22.417408c-4.868096-13.078528-11.751424-22.980608-20.205568-30.40256-2.103296-1.869824-4.354048-3.508224-6.590464-5.177344l-6.69696-5.003264c-4.448256-3.364864-8.984576-6.590464-13.490176-9.863168a836.255744 836.255744 0 0 0-13.606912-9.684992 847.271936 847.271936 0 0 0-13.703168-9.525248c-9.150464-6.326272-18.399232-12.494848-27.66848-18.642944l-13.948928-9.142272-14.0288-9.02144c-9.37984-5.961728-18.774016-11.907072-28.23168-17.750016-9.443328-5.86752-18.92352-11.679744-28.459008-17.399808l-28.628992-17.129472-28.819456-16.832512-28.9792-16.580608-29.120512-16.357376-29.259776-16.142336-29.394944-15.919104c-9.834496-5.255168-19.658752-10.520576-29.558784-15.673344-9.875456-5.179392-19.74272-10.385408-29.691904-15.458304l-9.007104 14.188544-45.40416-21.399552L585.728 375.539712l-239.935488-152.36096-124.813312 196.554752 239.937536 152.36096 50.751488-79.925248 38.680576 31.993856-9.0112 14.188544c8.824832 6.846464 17.729536 13.55776 26.619904 20.297728 8.869888 6.766592 17.815552 13.418496 26.753024 20.084736l26.908672 19.836928 27.056128 19.613696 27.189248 19.402752 27.33056 19.171328 27.488256 18.927616 27.676672 18.62656a2127.62624 2127.62624 0 0 0 27.856896 18.358272c9.310208 6.074368 18.683904 12.046336 28.071936 18.006016l14.127104 8.855552 14.204928 8.736768c9.506816 5.771264 19.023872 11.52 28.64128 17.115136a861.720576 861.720576 0 0 0 14.44864 8.351744 828.358656 828.358656 0 0 0 14.553088 8.192c4.880384 2.686976 9.728 5.421056 14.661632 8.011776l7.378944 3.936256c2.459648 1.31072 4.900864 2.654208 7.489536 3.762176 10.313728 4.493312 22.202368 6.51264 36.10624 5.353472a105.314304 105.314304 0 0 0 22.638592-4.538368c2.05824-0.649216 4.079616-1.241088 6.26688-2.095104l3.223552-1.18784 3.356672-1.39264c4.47488-1.86368 9.263104-4.225024 14.456832-7.213056 0.495616-5.967872 0.59392-11.30496 0.37888-16.150528zM146.724864 543.995904l233.312256 148.154368c19.156992 12.163072 44.544 6.496256 56.707072-12.658688l11.511808-18.126848c11.452416-18.038784 7.090176-41.596928-9.45152-54.441984L198.868992 454.559744c-18.659328-9.506816-41.84064-3.436544-53.293056 14.60224l-11.50976 18.1248c-12.167168 19.156992-6.498304 44.546048 12.658688 56.70912z" p-id="11228"></path></svg>