<?xml version="1.0" standalone="no"?><!DOCTYPE svg PUBLIC "-//W3C//DTD SVG 1.1//EN" "http://www.w3.org/Graphics/SVG/1.1/DTD/svg11.dtd"><svg t="1515812757838" class="icon" style="" viewBox="0 0 1024 1024" version="1.1" xmlns="http://www.w3.org/2000/svg" p-id="18314" xmlns:xlink="http://www.w3.org/1999/xlink" width="200" height="200"><defs><style type="text/css"></style></defs><path d="M778.587638 320.597739l-268.730441 0c-11.156084 0-20.204158 9.102309-20.204158 20.339234 0 11.229762 9.048073 20.333094 20.204158 20.333094l268.730441 0c11.156084 0 20.204158-9.102309 20.204158-20.333094C798.786679 329.700047 789.744745 320.597739 778.587638 320.597739L778.587638 320.597739zM778.587638 320.597739" p-id="18315"></path><path d="M778.587638 421.733137l-268.730441 0c-11.156084 0-20.204158 9.102309-20.204158 20.334117 0 11.229762 9.048073 20.338211 20.204158 20.338211l268.730441 0c11.156084 0 20.204158-9.107425 20.204158-20.338211C798.786679 430.835446 789.744745 421.733137 778.587638 421.733137L778.587638 421.733137zM778.587638 421.733137" p-id="18316"></path><path d="M602.51655 543.201629c0-11.229762-9.04398-20.333094-20.200064-20.333094l-72.463382 0c-11.156084 0-20.199041 9.102309-20.199041 20.333094 0 11.236925 9.042957 20.339234 20.199041 20.339234l72.463382 0C593.471546 563.540863 602.51655 554.433438 602.51655 543.201629L602.51655 543.201629zM602.51655 543.201629" p-id="18317"></path><path d="M123.901915 797.342794c-26.202779-2.75474-46.799886-25.258267-46.799886-52.369741L77.102029 236.032738c0-28.955472 23.49818-50.448996 52.221362-50.448996l764.390287 0c28.723182 0 54.41226 21.493523 54.41226 50.448996l0 366.345666c12.871145 10.039657 24.788569 21.233604 35.617196 33.412994L983.743134 218.039945c0-38.839587-34.453696-67.665099-72.982198-67.665099L111.526049 150.374846c-38.523385 0-70.040193 28.825512-70.040193 67.665099l0 544.267914c0 36.365232 27.627221 66.546625 62.771649 70.243831l561.799196 0c-3.112897-11.452843-5.489014-23.202445-7.058766-35.208896L123.901915 797.342794 123.901915 797.342794zM123.901915 797.342794" p-id="18318"></path><path d="M987.121068 858.842473 913.065422 784.29564c17.774829-23.01518 28.362978-51.933813 28.362978-83.349313 0-75.061556-60.444651-135.922692-135.044696-135.922692-74.570369 0-135.01502 60.861136-135.01502 135.922692 0 75.078952 60.444651 135.922692 135.01502 135.922692 31.215956 0 59.948347-10.657734 82.816171-28.55229l74.057693 74.546833c3.288906 3.312442 7.611352 4.982478 11.932774 4.982478 4.322445 0 8.643867-1.671059 11.930727-4.982478C993.730603 876.227422 993.730603 865.478614 987.121068 858.842473L987.121068 858.842473zM705.130625 700.946326c0-56.210209 45.411259-101.93767 101.253078-101.93767 55.871495 0 101.282754 45.727461 101.282754 101.93767 0 56.226582-45.411259 101.93767-101.282754 101.93767C750.541885 802.883997 705.130625 757.172909 705.130625 700.946326L705.130625 700.946326zM705.130625 700.946326" p-id="18319"></path><path d="M244.303098 577.449641c-0.156566-20.579711 0.156566-35.981493 0.476861-56.561204 0.156566-6.356778-6.906294-5.135974-11.302417-4.971222-27.783787 0.337691-49.27424 0-82.85301 0-11.443633 0-26.722618-10.926864-26.722618-32.334429 0-21.409612 15.512299-34.298154 31.953759-34.298154 27.475771 0 55.32505-0.337691 82.798774 0 5.492084 0 5.962805-4.187369 6.434549-10.041704 1.25662-13.389962-2.664689-23.425525-11.611455-33.298384-24.334221-26.768667-47.724954-54.877865-71.269183-82.485643-9.890254-11.545964-16.951067-24.423249-12.244882-40.827871 3.921309-13.716396 14.754029-20.410865 27.941376-17.73492 12.087293 2.51324 21.663392 9.208732 29.982872 18.575054 21.819958 24.761963 43.949978 49.354058 65.61337 74.284867 3.926426 4.519943 5.805216 5.027503 10.203386 0.50756 25.584702-26.442232 51.483558-52.375881 77.388555-78.30953 9.103332-9.197476 19.621896-15.051811 32.809243-11.709693 18.678408 4.687766 26.213012 24.76708 15.694447 41.660842-2.821255 4.689812-6.439666 8.871041-10.04682 12.883425-27.783787 30.79026-55.253418 61.740156-83.508949 92.024903-8.165983 8.871041-4.554736 18.7439-4.706185 28.278043-0.161682 3.849678 4.386914 6.192026 7.05672 6.192026 25.897833 0.164752 52.999075 0 78.898955 0 20.092617 0 33.178657 13.924127 33.178657 34.298154 0 20.37198-14.747889 32.066323-30.92022 32.334429-40.900525 0.681522-48.060599 0.173962-77.415161 0-7.067976 0-11.432377 0.12382-11.275811 7.985882 0.471744 18.906605-0.162706 32.634258-0.471744 51.54598-0.162706 5.849218 1.414209 7.693216 6.906294 7.693216 25.428136-0.333598 70.824045 0.50142 85.549421 0 11.935843-0.403183 27.627221 14.168698 27.627221 33.833573 0 19.669992-12.597923 33.336246-25.27157 33.167401-28.562523-0.375553-56.981782 0.168846-85.549421-0.163729-6.906294-0.173962-9.267061 1.499144-8.481162 9.366322 0.946558 8.531304-0.649799 28.523637-0.807389 37.22481-0.315178 19.576871-13.81668 34.302247-31.397081 34.80469-19.621896 0.50142-32.804127-11.384281-34.374902-31.958876-0.784876-10.205433 0.340761-31.870872 0.499373-42.250266 0.151449-5.687536-1.729387-7.02295-6.753821-7.02295-28.726252 0.168846-57.603953 0.168846-86.336344 0.168846-13.43601 0-28.097942-14.130835-28.097942-33.336246 0-19.201318 15.213493-33.332153 26.061562-33.500998 0 0 73.15309-0.168846 88.372723 0.168846C242.732323 583.643714 244.303098 582.302159 244.303098 577.449641L244.303098 577.449641z" p-id="18320"></path></svg>