<?xml version="1.0" standalone="no"?><!DOCTYPE svg PUBLIC "-//W3C//DTD SVG 1.1//EN" "http://www.w3.org/Graphics/SVG/1.1/DTD/svg11.dtd"><svg t="1521447315557" class="icon" style="" viewBox="0 0 1024 1024" version="1.1" xmlns="http://www.w3.org/2000/svg" p-id="3719" xmlns:xlink="http://www.w3.org/1999/xlink" width="200" height="200"><defs><style type="text/css"></style></defs><path d="M750.307 595.329c-33.906-40.919-74.516-71.694-119.244-91.076 53.762-36.979 89.086-98.898 89.086-168.918 0-112.996-91.975-204.926-205.027-204.926s-205.027 91.93-205.027 204.926c0 69.91 35.214 131.744 88.836 168.744a309.81 309.81 0 0 0-15.922 7.337c-39.796 19.72-75.432 47.842-105.917 83.586-30.072 35.258-53.651 76.194-70.083 121.673-16.87 46.692-25.424 96.122-25.424 146.916 0 16.568 13.432 30 30 30s30-13.432 30-30c0-178.284 122.708-323.329 273.537-323.329 149.885 0 267.295 142.022 267.295 323.329 0 16.568 13.432 30 30 30s30-13.432 30-30c-0.001-101.305-32.712-196.575-92.11-268.262zM370.094 335.335c0-79.912 65.059-144.926 145.027-144.926s145.027 65.014 145.027 144.926-65.058 144.926-145.027 144.926-145.027-65.014-145.027-144.926z" p-id="3720"></path></svg>