<?xml version="1.0" standalone="no"?><!DOCTYPE svg PUBLIC "-//W3C//DTD SVG 1.1//EN" "http://www.w3.org/Graphics/SVG/1.1/DTD/svg11.dtd"><svg t="1516104959091" class="icon" style="" viewBox="0 0 1024 1024" version="1.1" xmlns="http://www.w3.org/2000/svg" p-id="3717" xmlns:xlink="http://www.w3.org/1999/xlink" width="200" height="200"><defs><style type="text/css"></style></defs><path d="M929.379 482H542V94.622c0-16.569-13.432-30-30-30-16.568 0-30 13.431-30 30V482H94.622c-16.568 0-30 13.432-30 30 0 16.569 13.432 30 30 30H482v387.378c0 16.568 13.432 30 30 30 16.569 0 30-13.432 30-30V542h387.379c16.568 0 30-13.431 30-30 0-16.568-13.432-30-30-30z" p-id="3718"></path></svg>