<?xml version="1.0" standalone="no"?><!DOCTYPE svg PUBLIC "-//W3C//DTD SVG 1.1//EN" "http://www.w3.org/Graphics/SVG/1.1/DTD/svg11.dtd"><svg t="1515239216964" class="icon" style="" viewBox="0 0 1024 1024" version="1.1" xmlns="http://www.w3.org/2000/svg" p-id="6917" xmlns:xlink="http://www.w3.org/1999/xlink" width="200" height="200"><defs><style type="text/css"></style></defs><path d="M819.682 512h-46.199a8.843 8.843 0 0 0-8.843 8.843v236.01a8.843 8.843 0 0 1-8.843 8.843H268.202a8.843 8.843 0 0 1-8.843-8.843V269.258a8.843 8.843 0 0 1 8.843-8.843h234.955a8.843 8.843 0 0 0 8.843-8.843v-47.254a8.843 8.843 0 0 0-8.843-8.843H223.855c-15.608 0-28.379 12.771-28.379 28.379v576.291c0 15.608 12.771 28.379 28.379 28.379h576.291c15.608 0 28.379-12.771 28.379-28.379V520.843a8.844 8.844 0 0 0-8.843-8.843zM487.567 340.478c-12.976 0-23.592 10.617-23.592 23.592v163.832c0 11.77 8.735 21.598 20.042 23.323 1.19 0.187 2.408 0.285 3.648 0.285h163.832c12.976 0 23.592-10.617 23.592-23.592v-16.12c0-12.976-10.617-23.592-23.592-23.592h-79.413l223.642-223.642c10.023-10.023 10.023-26.425 0-36.449l-8.314-8.314c-10.023-10.023-26.425-10.023-36.449 0L527.279 443.483V364.07c0-12.976-10.617-23.592-23.592-23.592h-16.12z m39.712 140.481l7.246 7.246h-7.246v-7.246z" p-id="6918"></path></svg>