<?xml version="1.0" standalone="no"?><!DOCTYPE svg PUBLIC "-//W3C//DTD SVG 1.1//EN" "http://www.w3.org/Graphics/SVG/1.1/DTD/svg11.dtd"><svg t="1515811685752" class="icon" style="" viewBox="0 0 1024 1024" version="1.1" xmlns="http://www.w3.org/2000/svg" p-id="7888" xmlns:xlink="http://www.w3.org/1999/xlink" width="200" height="200"><defs><style type="text/css"></style></defs><path d="M647.157029 465.073371c51.210971-40.213943 84.245943-102.496914 84.245943-172.494629 0-120.994743-98.424686-219.421257-219.421257-219.421257-120.996571 0-219.421257 98.424686-219.421257 219.421257 0 69.997714 33.069714 132.280686 84.247771 172.494629-134.853486 53.891657-230.528 185.636571-230.528 339.487086l0 73.1392c0 20.214857 16.356571 36.571429 36.571429 36.571429l658.261943 0c20.214857 0 36.5696-16.356571 36.5696-36.571429l0-73.1392C877.685029 650.673371 782.045257 518.965029 647.157029 465.073371zM511.983543 146.298514c80.676571 0 146.282057 65.603657 146.282057 146.280229s-65.605486 146.282057-146.282057 146.282057-146.282057-65.605486-146.282057-146.282057S431.306971 146.298514 511.983543 146.298514zM804.544 841.131886 219.421257 841.131886l0-36.571429C219.421257 643.245714 350.666971 512 512.018286 512c161.314743 0 292.523886 131.245714 292.523886 292.560457L804.542171 841.131886z" p-id="7889"></path><path d="M267.170743 477.787429c1.000229-2.2144 1.000229-4.571429 1.499429-6.857143 0.356571-1.393371 0.749714-2.7136 0.928914-4.178286 0.285257-2.8928 0.107886-5.641143-0.285257-8.462629-0.142629-1.499429 0.213943-2.929371-0.142629-4.4288-0.213943-0.8576-0.821029-1.464686-1.071543-2.322286-0.570514-1.642057-1.3568-3.106743-2.143086-4.642743-1.499429-3.143314-3.143314-5.999543-5.392457-8.533943-0.321829-0.356571-0.714971-0.607086-1.071543-0.963657-3.320686-3.465143-7.1424-6.107429-11.499886-8-39.570286-17.642057-65.141029-56.927086-65.141029-100.2112 0-50.927543 34.497829-94.782171 83.924114-106.6752 19.642514-4.750629 31.712914-24.4992 26.998857-44.141714-4.785371-19.642514-24.607086-31.570286-44.141714-26.998857-82.389943 19.856457-139.924114 92.995657-139.924114 177.815771 0 46.2848 17.607314 89.674971 47.535543 122.673371C62.070857 501.178514 0.001829 599.817143 0.001829 711.422171l0 56.570514c0 20.213029 16.356571 36.5696 36.5696 36.5696s36.571429-16.356571 36.571429-36.5696l0-56.570514c0-101.140114 67.997257-187.922286 165.564343-212.4928C250.848914 497.214171 261.884343 489.823086 267.170743 477.787429z" p-id="7890"></path><path d="M866.578286 451.858286c29.9264-32.9984 47.531886-76.3904 47.531886-122.673371 0-82.603886-55.639771-155.243886-135.316114-176.636343-19.463314-5.215086-39.533714 6.321371-44.820114 25.821257-5.249829 19.534629 6.321371 39.570286 25.821257 44.820114 47.7824 12.820114 81.175771 56.426057 81.175771 105.9968 0 43.284114-25.536 82.497829-65.069714 100.174629-4.426971 1.929143-8.32 4.608-11.677257 8.107886-0.285257 0.321829-0.643657 0.535771-0.928914 0.8576-2.285714 2.5344-3.927771 5.463771-5.463771 8.641829-0.749714 1.536-1.570743 2.964114-2.106514 4.571429-0.250514 0.821029-0.8576 1.464686-1.071543 2.322286-0.356571 1.499429 0 2.929371-0.142629 4.4288-0.393143 2.821486-0.570514 5.571657-0.285257 8.462629 0.1792 1.464686 0.570514 2.784914 0.928914 4.178286 0.4992 2.285714 0.4992 4.642743 1.499429 6.857143 5.2864 12.035657 16.32 19.428571 28.461714 21.141943 97.567086 24.572343 165.566171 111.352686 165.566171 212.4928l0 56.570514c0 20.213029 16.356571 36.5696 36.5696 36.5696s36.5696-16.356571 36.5696-36.5696l0-56.570514C1023.822629 599.817143 961.7536 501.178514 866.578286 451.858286z" p-id="7891"></path></svg>