<?xml version="1.0" standalone="no"?><!DOCTYPE svg PUBLIC "-//W3C//DTD SVG 1.1//EN" "http://www.w3.org/Graphics/SVG/1.1/DTD/svg11.dtd"><svg t="1519637780343" class="icon" style="" viewBox="0 0 1024 1024" version="1.1" xmlns="http://www.w3.org/2000/svg" p-id="7306" xmlns:xlink="http://www.w3.org/1999/xlink" width="200" height="200"><defs><style type="text/css"></style></defs><path d="M804.721 354.517L593.57 187.462l0.03-0.979H330.343v0.033H215l-1 651h595l1-483h-5.279z m-58.721 423H279v-547h84v-1.112h229.26l0.073-2.345v130.947H746v419.51zM321.539 496.81h380.342v-60H321.539v60z m197.214-168.116H321.116v60h197.637v-60z m106.855 368.973l-21.161-102.016h-19.564l-21.36 102.016-18.488-102.016h-22.887l29.383 136.553h20.775l21.162-100.018 21.561 100.018h20.375l28.686-136.553h-19.091l-19.391 102.016z m-162.352-26.852h43.52v-18.168h-43.52v-38.929h55.498v-18.067h-78.058v136.252h78.956v-18.467h-56.396v-42.621z m-66.779 23.059l-44.799-98.223h-26.57v136.252h18.866V622.802l50.31 109.102h21.06V595.651h-18.866v98.223z" p-id="7307"></path></svg>