<?xml version="1.0" standalone="no"?><!DOCTYPE svg PUBLIC "-//W3C//DTD SVG 1.1//EN" "http://www.w3.org/Graphics/SVG/1.1/DTD/svg11.dtd"><svg t="1515899169666" class="icon" style="" viewBox="0 0 1024 1024" version="1.1" xmlns="http://www.w3.org/2000/svg" p-id="3717" xmlns:xlink="http://www.w3.org/1999/xlink" width="200" height="200"><defs><style type="text/css"></style></defs><path d="M307.478 383.673h70v-70h-70v70z m0 88.257h70v-70h-70v70z m108.521-88.257h70v-70h-70v70z m0 88.257h70v-70h-70v70z m388.822 276.554V405.683c0-31.124-26.02-56.444-58.001-56.444H601.826v60h142.995v339.246H574.482V246.272c0-37.184-29.911-67.435-66.678-67.435h-223.37c-36.766 0-66.678 29.916-66.678 66.687v502.96h-29.182v96.678h646.852v-96.678h-30.605z m-290.339 0H277.756v-502.96c0-3.5 3.183-6.687 6.678-6.687h223.371c3.683 0 6.678 3.335 6.678 7.435v502.212z" p-id="3718"></path></svg>