<?xml version="1.0" standalone="no"?><!DOCTYPE svg PUBLIC "-//W3C//DTD SVG 1.1//EN" "http://www.w3.org/Graphics/SVG/1.1/DTD/svg11.dtd"><svg t="1516706308744" class="icon" style="" viewBox="0 0 1024 1024" version="1.1" xmlns="http://www.w3.org/2000/svg" p-id="6093" xmlns:xlink="http://www.w3.org/1999/xlink" width="32" height="32"><defs><style type="text/css"></style></defs><path d="M762.078 148.587H261.922c-62.506 0-113.359 50.853-113.359 113.359v250.078c0 56.151 50.598 100.01 103.365 110.797v180.877c0 29.095 17.369 55.089 44.249 66.223a71.776 71.776 0 0 0 27.504 5.492c18.615 0 36.867-7.285 50.612-21.03 0.373-0.373 0.736-0.756 1.089-1.147l204.999-227.853h181.697c62.506 0 113.359-50.853 113.359-113.358V261.946c0.001-62.506-50.853-113.359-113.359-113.359z m53.36 363.437c0 29.422-23.938 53.358-53.359 53.358H562.477c-13.973 0-25.713 9.552-29.051 22.481L331.449 812.358c-4.685 4.332-9.697 3.213-12.311 2.13-2.693-1.115-7.21-4-7.21-10.79V595.383c0-16.568-13.432-30-30-30-0.914 0-1.816 0.048-2.709 0.128a30.337 30.337 0 0 0-2.709-0.128c-29.951 0-67.947-25.123-67.947-53.358V261.946c0-29.422 23.937-53.359 53.359-53.359h500.156c29.422 0 53.359 23.937 53.359 53.359v250.078zM303.602 336.145c-28.033 0-50.84 22.807-50.84 50.84s22.807 50.84 50.84 50.84 50.84-22.807 50.84-50.84-22.807-50.84-50.84-50.84z m0 60c-5.051 0-9.16-4.109-9.16-9.16s4.109-9.16 9.16-9.16 9.16 4.109 9.16 9.16-4.11 9.16-9.16 9.16z m208.398-60c-28.033 0-50.839 22.807-50.839 50.84s22.807 50.84 50.839 50.84c28.033 0 50.84-22.807 50.84-50.84s-22.807-50.84-50.84-50.84z m0 60c-5.051 0-9.161-4.109-9.161-9.16s4.109-9.16 9.161-9.16c5.051 0 9.16 4.109 9.16 9.16s-4.109 9.16-9.16 9.16z m208.398-60c-28.033 0-50.84 22.807-50.84 50.84s22.807 50.84 50.84 50.84 50.84-22.807 50.84-50.84-22.806-50.84-50.84-50.84z m0 60c-5.051 0-9.16-4.109-9.16-9.16s4.109-9.16 9.16-9.16 9.16 4.109 9.16 9.16-4.109 9.16-9.16 9.16z" p-id="6094"></path></svg>