<?xml version="1.0" standalone="no"?><!DOCTYPE svg PUBLIC "-//W3C//DTD SVG 1.1//EN" "http://www.w3.org/Graphics/SVG/1.1/DTD/svg11.dtd"><svg t="1515811049235" class="icon" style="" viewBox="0 0 1092 1024" version="1.1" xmlns="http://www.w3.org/2000/svg" p-id="1526" xmlns:xlink="http://www.w3.org/1999/xlink" width="213.28125" height="200"><defs><style type="text/css"></style></defs><path d="M553.710933 750.933333h402.090667A45.374578 45.374578 0 0 0 1001.244444 705.581511V136.374044A45.511111 45.511111 0 0 0 955.8016 91.022222H136.465067A45.374578 45.374578 0 0 0 91.022222 136.374044v569.207467A45.511111 45.511111 0 0 0 136.465067 750.933333H295.822222v136.533334l257.888711-136.533334z m22.300445 91.022223l-291.612445 160.881777C240.4352 1027.094756 204.8 1006.045867 204.8 955.824356V841.955556H136.669867A136.692622 136.692622 0 0 1 0 705.285689V136.669867A136.6016 136.6016 0 0 1 136.669867 0h818.926933A136.692622 136.692622 0 0 1 1092.266667 136.669867v568.615822A136.6016 136.6016 0 0 1 955.5968 841.955556H576.011378zM295.822222 500.622222a68.266667 68.266667 0 1 1 0-136.533333 68.266667 68.266667 0 0 1 0 136.533333z m250.311111 0a68.266667 68.266667 0 1 1 0-136.533333 68.266667 68.266667 0 0 1 0 136.533333z m250.311111 0a68.266667 68.266667 0 1 1 0-136.533333 68.266667 68.266667 0 0 1 0 136.533333z" p-id="1527"></path></svg>