<?xml version="1.0" standalone="no"?><!DOCTYPE svg PUBLIC "-//W3C//DTD SVG 1.1//EN" "http://www.w3.org/Graphics/SVG/1.1/DTD/svg11.dtd"><svg t="1515812827952" class="icon" style="" viewBox="0 0 1024 1024" version="1.1" xmlns="http://www.w3.org/2000/svg" p-id="19318" xmlns:xlink="http://www.w3.org/1999/xlink" width="200" height="200"><defs><style type="text/css"></style></defs><path d="M793.6 96h-640c-38.4 0-64 25.6-64 64v768c0 38.4 25.6 64 64 64h640c38.4 0 64-25.6 64-64v-768c0-32-32-64-64-64z m0 800c0 19.2-12.8 32-32 32h-576c-19.2 0-32-12.8-32-32V192c0-19.2 12.8-32 32-32h576c19.2 0 32 12.8 32 32v704z" p-id="19319"></path><path d="M537.6 608L377.6 768l-70.4-64c-12.8-12.8-32-12.8-44.8 0-12.8 12.8-12.8 32 0 44.8l89.6 89.6c6.4 6.4 12.8 6.4 25.6 6.4 6.4 0 19.2 0 25.6-6.4l179.2-179.2c12.8-12.8 12.8-32 0-44.8-12.8-19.2-32-19.2-44.8-6.4zM697.6 288h-192c-19.2 0-32 12.8-32 32s12.8 32 32 32h192c19.2 0 32-12.8 32-32s-12.8-32-32-32zM697.6 416h-192c-19.2 0-32 12.8-32 32s12.8 32 32 32h192c19.2 0 32-12.8 32-32s-12.8-32-32-32z" p-id="19320"></path></svg>