<?xml version="1.0" standalone="no"?><!DOCTYPE svg PUBLIC "-//W3C//DTD SVG 1.1//EN" "http://www.w3.org/Graphics/SVG/1.1/DTD/svg11.dtd"><svg t="1515899218230" class="icon" style="" viewBox="0 0 1024 1024" version="1.1" xmlns="http://www.w3.org/2000/svg" p-id="3825" xmlns:xlink="http://www.w3.org/1999/xlink" width="200" height="200"><defs><style type="text/css"></style></defs><path d="M813.63 218.074H210.37c-16.568 0-30 13.431-30 30v527.852c0 16.568 13.432 30 30 30h603.26c16.568 0 30-13.432 30-30V248.074c0-16.569-13.432-30-30-30z m-30 527.852H240.37V465.414h543.26v280.512z m0-340.512H240.37v-127.34h543.26v127.34z m-384.741 287.4h226.222c16.568 0 30-13.432 30-30s-13.432-30-30-30H398.889c-16.568 0-30 13.432-30 30s13.432 30 30 30z m0-113.111h226.222c16.568 0 30-13.432 30-30s-13.432-30-30-30H398.889c-16.568 0-30 13.432-30 30s13.432 30 30 30z m-75.408-207.37h150.814c16.568 0 30-13.432 30-30s-13.432-30-30-30H323.481c-16.568 0-30 13.432-30 30s13.432 30 30 30z" p-id="3826"></path></svg>