<?xml version="1.0" standalone="no"?><!DOCTYPE svg PUBLIC "-//W3C//DTD SVG 1.1//EN" "http://www.w3.org/Graphics/SVG/1.1/DTD/svg11.dtd"><svg t="1515899243171" class="icon" style="" viewBox="0 0 1024 1024" version="1.1" xmlns="http://www.w3.org/2000/svg" p-id="3933" xmlns:xlink="http://www.w3.org/1999/xlink" width="200" height="200"><defs><style type="text/css"></style></defs><path d="M818.037 205.959H205.963c-16.568 0-30 13.431-30 30v552.082c0 16.568 13.432 30 30 30h612.074c16.568 0 30-13.432 30-30V235.959c0-16.569-13.432-30-30-30z m-30 552.082H235.963V265.959h552.074v492.082zM588.51 384.262h153.019c16.568 0 30-13.432 30-30s-13.432-30-30-30H588.51c-16.568 0-30 13.432-30 30s13.431 30 30 30z m0 118.303h153.019c16.568 0 30-13.432 30-30s-13.432-30-30-30H588.51c-16.568 0-30 13.432-30 30s13.431 30 30 30z m153.018 58.304h-76.51c-16.568 0-30 13.432-30 30s13.432 30 30 30h76.51c16.568 0 30-13.432 30-30s-13.431-30-30-30zM281.791 698.411c16.568 0 30-13.432 30-30 0-70.436 55.187-127.738 123.02-127.738 67.832 0 123.018 57.303 123.018 127.738 0 16.568 13.432 30 30 30s30-13.432 30-30c0-82.168-51.73-152.168-123.535-177.552C523.023 471.34 542 437.961 542 400.133c0-60.03-47.779-108.869-106.509-108.869s-106.51 48.838-106.51 108.869c0 37.621 18.768 70.843 47.232 90.407-72.268 25.118-124.423 95.364-124.423 177.872 0.001 16.567 13.433 29.999 30.001 29.999z m153.7-347.147c25.646 0 46.509 21.922 46.509 48.869s-20.863 48.869-46.509 48.869-46.51-21.923-46.51-48.869 20.865-48.869 46.51-48.869z" p-id="3934"></path></svg>