<?xml version="1.0" standalone="no"?><!DOCTYPE svg PUBLIC "-//W3C//DTD SVG 1.1//EN" "http://www.w3.org/Graphics/SVG/1.1/DTD/svg11.dtd"><svg t="1515898369444" class="icon" style="" viewBox="0 0 1024 1024" version="1.1" xmlns="http://www.w3.org/2000/svg" p-id="2252" data-spm-anchor-id="a313x.7781069.0.i4" xmlns:xlink="http://www.w3.org/1999/xlink" width="200" height="200"><defs><style type="text/css"></style></defs><path d="M862.9376 407.0144c2.3808-2.3808 4.16-5.1456 5.4016-8.0768 0.0128-0.0384 0.0384-0.064 0.0512-0.0896 0.5248-1.2416 0.8704-2.5216 1.1904-3.8144 0.0896-0.3584 0.2432-0.6912 0.3072-1.0624 0.32-1.6256 0.4992-3.2768 0.4992-4.928 0-0.0384 0.0128-0.0768 0.0128-0.128S870.4 388.8256 870.4 388.7872c-0.0128-1.6512-0.1792-3.3024-0.4992-4.928-0.0768-0.3712-0.2176-0.704-0.3072-1.0624-0.32-1.2928-0.6656-2.5728-1.1904-3.8144-0.0128-0.0384-0.0384-0.064-0.0512-0.0896-1.2416-2.9312-3.0208-5.696-5.4016-8.0768l0 0L627.6224 135.4752c-9.9584-9.9584-26.2528-9.9584-36.1984 0-9.9584 9.9584-9.9584 26.2528 0 36.1984l191.6288 191.6288L179.1872 363.3024c-14.08 0-25.6 11.52-25.6 25.6s11.52 25.6 25.6 25.6l669.5424 0L862.9376 407.0144z" p-id="2253" fill="#DAE0E6"></path><path d="M161.0624 616.9856c-2.3808 2.3808-4.16 5.1456-5.4016 8.0768-0.0128 0.0384-0.0384 0.064-0.0512 0.0896-0.5248 1.2416-0.8704 2.5216-1.1904 3.8144-0.0896 0.3584-0.2432 0.6912-0.3072 1.0624-0.32 1.6256-0.4992 3.2768-0.4992 4.928 0 0.0384-0.0128 0.0768-0.0128 0.128S153.6 635.1744 153.6 635.2128c0.0128 1.6512 0.1792 3.3024 0.4992 4.928 0.0768 0.3712 0.2176 0.704 0.3072 1.0624 0.32 1.2928 0.6656 2.5728 1.1904 3.8144 0.0128 0.0384 0.0384 0.064 0.0512 0.0896 1.2416 2.9312 3.0208 5.696 5.4016 8.0768l0 0 235.328 235.328c9.9584 9.9584 26.2528 9.9584 36.1984 0 9.9584-9.9584 9.9584-26.2528 0-36.1984L240.96 660.6976l603.8528 0c14.08 0 25.6-11.52 25.6-25.6s-11.52-25.6-25.6-25.6L175.2704 609.4976 161.0624 616.9856z" p-id="2254" fill="#DAE0E6"></path></svg>