<?xml version="1.0" standalone="no"?><!DOCTYPE svg PUBLIC "-//W3C//DTD SVG 1.1//EN" "http://www.w3.org/Graphics/SVG/1.1/DTD/svg11.dtd"><svg t="1515551873691" class="icon" style="" viewBox="0 0 1024 1024" version="1.1" xmlns="http://www.w3.org/2000/svg" p-id="5696" xmlns:xlink="http://www.w3.org/1999/xlink" width="200" height="200"><defs><style type="text/css"></style></defs><path d="M752.347 687.339l-57.472-115.413V382.852h-0.021c-0.242-100.696-82.233-182.544-182.985-182.544-100.754 0-182.745 81.848-182.987 182.544h-0.006V574.31l-57.133 112.852a30.002 30.002 0 0 0 26.766 43.551h115.025c2.873 51.756 45.882 92.98 98.342 92.98 52.461 0 95.47-41.225 98.343-92.98h115.274a30.002 30.002 0 0 0 26.854-43.374z m-240.472 76.353c-19.354 0-35.412-14.358-38.099-32.98h76.197c-2.686 18.622-18.744 32.98-38.098 32.98z m-164.554-92.98l38.952-76.94 2.593-10.92h0.008V383.261c0.021-67.8 55.187-122.953 122.993-122.953 67.817 0 122.991 55.174 122.991 122.991h0.016v199.553h0.021l3.741 10.742 38.401 77.118H347.321z" p-id="5697"></path></svg>