<?xml version="1.0" standalone="no"?><!DOCTYPE svg PUBLIC "-//W3C//DTD SVG 1.1//EN" "http://www.w3.org/Graphics/SVG/1.1/DTD/svg11.dtd"><svg t="1519637747409" class="icon" style="" viewBox="0 0 1024 1024" version="1.1" xmlns="http://www.w3.org/2000/svg" p-id="7183" xmlns:xlink="http://www.w3.org/1999/xlink" width="200" height="200"><defs><style type="text/css"></style></defs><path d="M782.708 520.673c-16.568 0-30 13.432-30 30V791.38H271.292V232.62h511.416c16.568 0 30-13.432 30-30s-13.432-30-30-30H241.292c-16.569 0-30 13.432-30 30v618.76c0 16.568 13.431 30 30 30h541.416c16.568 0 30-13.432 30-30V550.673c0-16.569-13.432-30-30-30z m-33.479-223.249c-11.715-11.716-30.711-11.715-42.426 0.001L378.656 625.571a30 30 0 0 0-7.247 11.727l-27.346 82.036a30 30 0 0 0 37.947 37.948l82.037-27.346a30.003 30.003 0 0 0 11.727-7.248l328.147-328.146c11.716-11.716 11.716-30.711 0-42.426l-54.692-54.692zM438.355 675.255l-18.398 6.132 6.132-18.397 301.927-301.926 12.265 12.266-301.926 301.925z" p-id="7184"></path></svg>