<?xml version="1.0" standalone="no"?><!DOCTYPE svg PUBLIC "-//W3C//DTD SVG 1.1//EN" "http://www.w3.org/Graphics/SVG/1.1/DTD/svg11.dtd"><svg t="1519637831386" class="icon" style="" viewBox="0 0 1024 1024" version="1.1" xmlns="http://www.w3.org/2000/svg" p-id="7429" xmlns:xlink="http://www.w3.org/1999/xlink" width="200" height="200"><defs><style type="text/css"></style></defs><path d="M434.846 531.596h-190.5c-29.851 0-54.135 24.285-54.135 54.136V776.23c0 29.851 24.285 54.136 54.135 54.136h190.5c29.851 0 54.136-24.285 54.136-54.136V585.731c-0.001-29.85-24.286-54.135-54.136-54.135z m-9.887 234.748H254.233V595.618h170.726v170.726z m2.803-572.71H251.43c-33.756 0-61.219 27.463-61.219 61.22v176.332c0 33.757 27.462 61.219 61.219 61.219h176.333c33.756 0 61.219-27.462 61.219-61.219V254.854c-0.001-33.757-27.463-61.22-61.22-61.22z m-2.803 234.749H254.233V257.656h170.726v170.727z m349.262 103.213H594.588c-32.847 0-59.569 25.467-59.569 56.77v185.231c0 31.303 26.723 56.77 59.569 56.77h179.633c32.846 0 59.568-25.467 59.568-56.77V588.365c0-31.302-26.723-56.769-59.568-56.769z m-4.454 234.748H599.041V595.618h170.726v170.726z m-85.363-273.94c82.371 0 149.385-67.014 149.385-149.385s-67.014-149.386-149.385-149.386c-82.372 0-149.386 67.015-149.386 149.386s67.014 149.385 149.386 149.385z m0-234.748c47.069 0 85.362 38.294 85.362 85.363s-38.293 85.363-85.362 85.363-85.363-38.294-85.363-85.363 38.294-85.363 85.363-85.363z" p-id="7430"></path></svg>