<?xml version="1.0" standalone="no"?><!DOCTYPE svg PUBLIC "-//W3C//DTD SVG 1.1//EN" "http://www.w3.org/Graphics/SVG/1.1/DTD/svg11.dtd"><svg t="1517309551110" class="icon" style="" viewBox="0 0 1024 1024" version="1.1" xmlns="http://www.w3.org/2000/svg" p-id="5842" xmlns:xlink="http://www.w3.org/1999/xlink" width="200" height="200"><defs><style type="text/css"></style></defs><path d="M395.276 383.441L64.119 709.538l182.944 24.953-121.338 225.39 318.891-321.057-152.198-31.318 102.858-224.065z m126.832-183.712c-18.587 0-33.674 15.192-33.674 33.907v271.225c0 18.715 15.085 33.908 33.674 33.908h202.048c18.59 0 33.676-15.192 33.676-33.908 0-18.717-15.087-33.9-33.676-33.9H555.784V233.636c0-18.715-15.084-33.907-33.676-33.907z m33.676-135.61c-222.995 0-404.095 182.4-404.095 406.842h67.35c0-187.146 150.86-339.032 336.745-339.032 185.882 0 336.744 151.885 336.744 339.032 0 187.145-150.86 339.03-336.744 339.03-56.833 0-110.366-14.24-157.338-39.304l-43.662 53.17c59.221 34.29 127.848 53.942 201.002 53.942 222.99 0 404.094-182.335 404.094-406.839 0-224.441-181.102-406.84-404.096-406.84z" p-id="5843"></path></svg>