<?xml version="1.0" standalone="no"?><!DOCTYPE svg PUBLIC "-//W3C//DTD SVG 1.1//EN" "http://www.w3.org/Graphics/SVG/1.1/DTD/svg11.dtd"><svg t="1517312891410" class="icon" style="" viewBox="0 0 1024 1024" version="1.1" xmlns="http://www.w3.org/2000/svg" p-id="3654" xmlns:xlink="http://www.w3.org/1999/xlink" width="200" height="200"><defs><style type="text/css"></style></defs><path d="M536.936 561.616V347.3h-49.872v214.32l-84.876-84.885-35.267 35.27 145.077 145.068 145.08-145.068-35.267-35.27-84.875 84.881z m0 0" p-id="3655"></path><path d="M806.851 387.442c-16.12-38.107-39.19-72.33-68.575-101.715-29.385-29.385-63.608-52.458-101.716-68.575C597.104 200.463 555.195 192 511.998 192s-85.105 8.463-124.565 25.152c-38.104 16.117-72.325 39.19-101.709 68.575-29.385 29.385-52.455 63.608-68.575 101.715C200.463 426.899 192 468.808 192 512.005s8.463 85.105 25.149 124.562c16.12 38.104 39.19 72.328 68.575 101.713 29.385 29.382 63.605 52.455 101.709 68.572C426.893 823.537 468.801 832 511.998 832s85.105-8.463 124.562-25.149c38.107-16.117 72.331-39.19 101.716-68.572 29.385-29.385 52.455-63.608 68.575-101.713C823.54 597.11 832 555.202 832 512.005s-8.46-85.106-25.149-124.563zM617.147 760.903c-33.296 14.081-68.673 21.222-105.149 21.222-36.47 0-71.844-7.141-105.14-21.222-32.167-13.605-61.056-33.085-85.868-57.894-24.812-24.812-44.292-53.701-57.897-85.865-14.084-33.296-21.228-68.67-21.228-105.14 0-36.473 7.143-71.853 21.228-105.149 13.605-32.167 33.085-61.059 57.897-85.871 24.812-24.812 53.701-44.289 85.868-57.894 33.296-14.084 68.67-21.225 105.14-21.225 36.473 0 71.85 7.141 105.149 21.225 32.167 13.605 61.056 33.082 85.865 57.894 24.812 24.812 44.289 53.704 57.894 85.871 14.081 33.296 21.222 68.673 21.222 105.149 0 36.47-7.141 71.844-21.222 105.14-13.605 32.164-33.082 61.056-57.894 85.865-24.809 24.809-53.698 44.289-85.865 57.894z m0 0" p-id="3656"></path></svg>