<?xml version="1.0" standalone="no"?><!DOCTYPE svg PUBLIC "-//W3C//DTD SVG 1.1//EN" "http://www.w3.org/Graphics/SVG/1.1/DTD/svg11.dtd"><svg t="1516148222464" class="icon" style="" viewBox="0 0 1024 1024" version="1.1" xmlns="http://www.w3.org/2000/svg" p-id="5689" xmlns:xlink="http://www.w3.org/1999/xlink" width="200" height="200"><defs><style type="text/css"></style></defs><path d="M838.174 494L596.436 171.682c-9.941-13.254-28.743-15.941-42-6-13.255 9.941-15.941 28.745-6 42L776.674 512 548.436 816.317c-9.941 13.255-7.255 32.059 6 42a29.862 29.862 0 0 0 17.977 6.002c9.121-0.001 18.13-4.145 24.023-12.002L838.174 530a30 30 0 0 0 0-36zM233.828 171.682c-9.941-13.255-28.746-15.941-42-6-13.255 9.941-15.941 28.745-6 42L414.066 512 185.828 816.317c-9.941 13.255-7.255 32.059 6 42a29.862 29.862 0 0 0 17.977 6.002c9.12-0.001 18.13-4.145 24.023-12.002L475.565 530a30 30 0 0 0 0-36L233.828 171.682z" p-id="5690"></path></svg>