<?xml version="1.0" standalone="no"?><!DOCTYPE svg PUBLIC "-//W3C//DTD SVG 1.1//EN" "http://www.w3.org/Graphics/SVG/1.1/DTD/svg11.dtd"><svg t="1515813168044" class="icon" style="" viewBox="0 0 1024 1024" version="1.1" xmlns="http://www.w3.org/2000/svg" p-id="21483" xmlns:xlink="http://www.w3.org/1999/xlink" width="200" height="200"><defs><style type="text/css"></style></defs><path d="M958.72 848a24 24 0 0 1-24 24H89.344a24 24 0 0 1 0-48h845.376c13.312 0 24 10.752 24 24z" p-id="21484"></path><path d="M89.344 152c13.248 0 24 10.752 24 24v671.936a24 24 0 0 1-48 0V176c0-13.248 10.752-24 24-24zM398.72 468.352a24 24 0 0 1 0 33.92l-203.584 203.584a24 24 0 0 1-33.92-33.92L364.8 468.352a24 24 0 0 1 33.92 0zM869.824 359.296a23.936 23.936 0 0 1-4.864 33.6L536.384 639.424a24 24 0 0 1-33.536-4.736 23.872 23.872 0 0 1 4.8-33.536l328.512-246.592a24.128 24.128 0 0 1 33.664 4.736z" p-id="21485"></path><path d="M535.424 637.184a24 24 0 0 1-33.92 0L366.656 502.272a24.064 24.064 0 0 1 0-33.984 24.128 24.128 0 0 1 33.92 0l134.848 134.912a24 24 0 0 1 0 33.984z" p-id="21486"></path></svg>