<?xml version="1.0" standalone="no"?><!DOCTYPE svg PUBLIC "-//W3C//DTD SVG 1.1//EN" "http://www.w3.org/Graphics/SVG/1.1/DTD/svg11.dtd"><svg t="1516415475954" class="icon" style="" viewBox="0 0 1024 1024" version="1.1" xmlns="http://www.w3.org/2000/svg" p-id="6287" xmlns:xlink="http://www.w3.org/1999/xlink" width="32" height="32"><defs><style type="text/css"></style></defs><path d="M283.36 180.992c-28.16 0-50.88 22.656-50.88 50.88 0 28.16 22.72 50.88 50.88 50.88h446.016a50.88 50.88 0 0 0 0-101.76h-96.512V83.84A81.088 81.088 0 0 0 551.776 2.72h-89.504a81.088 81.088 0 0 0-81.088 81.12v97.184H283.36v-0.032z m223.008-132.64c29.6 0 53.76 24.096 53.76 53.728 0 29.6-24.128 53.728-53.76 53.728a53.824 53.824 0 0 1-53.696-53.728c0-29.632 24.128-53.728 53.696-53.728z m240.48 559.616a206.656 206.656 0 1 0 0 413.344 206.656 206.656 0 0 0 0-413.344z m144.192 232.992h-144.192a26.24 26.24 0 0 1-26.336-26.304v-138.688a26.272 26.272 0 1 1 52.608 0v112.352h117.92c14.624 0 26.336 11.744 26.336 26.336s-11.712 26.304-26.336 26.304zM167.04 892.736V182.848a19.52 19.52 0 0 1 19.488-19.488h130.368V84.288H186.56a98.72 98.72 0 0 0-98.592 98.592v709.888a98.72 98.72 0 0 0 98.592 98.56h319.84v-79.072H186.56a19.584 19.584 0 0 1-19.52-19.52zM845.728 182.848v397.248H924.8V182.848a98.688 98.688 0 0 0-98.528-98.592h-127.84v79.104h127.84a19.52 19.52 0 0 1 19.456 19.488zM288.8 617.792a23.84 23.84 0 0 1-23.648-23.584c0-12.992 10.752-23.584 23.648-23.584h205.632c12.896 0 23.648 10.592 23.648 23.584a23.84 23.84 0 0 1-23.648 23.584H288.8z m0-96.64a23.84 23.84 0 0 1-23.648-23.616c0-12.96 10.752-23.584 23.648-23.584h423.392c12.832 0 23.584 10.656 23.584 23.584a23.872 23.872 0 0 1-23.584 23.616H288.8z m0-94.496a23.84 23.84 0 0 1-23.648-23.584c0-12.864 10.752-23.584 23.648-23.584h316.928c12.832 0 23.616 10.72 23.616 23.584a23.872 23.872 0 0 1-23.616 23.584H288.8z" p-id="6288"></path></svg>