<?xml version="1.0" standalone="no"?><!DOCTYPE svg PUBLIC "-//W3C//DTD SVG 1.1//EN" "http://www.w3.org/Graphics/SVG/1.1/DTD/svg11.dtd"><svg t="1514945584164" class="icon" style="" viewBox="0 0 1024 1024" version="1.1" xmlns="http://www.w3.org/2000/svg" p-id="4969" xmlns:xlink="http://www.w3.org/1999/xlink" width="200" height="200"><defs><style type="text/css"></style></defs><path d="M79.195 450.868L494 761.971a29.999 29.999 0 0 0 36 0l414.805-311.103c13.256-9.941 15.941-28.745 6-42s-28.746-15.94-42-6L512 700.471 115.195 402.868a29.864 29.864 0 0 0-17.977-6.002c-9.121 0-18.13 4.144-24.023 12.002-9.942 13.255-7.255 32.058 6 42z m104.71-140.382L493.081 561.73c11.043 8.975 26.871 8.956 37.892-0.043l309.176-252.418c12.834-10.478 14.744-29.377 4.266-42.211-5.93-7.264-14.557-11.028-23.256-11.028a29.878 29.878 0 0 0-18.955 6.763L511.957 499.756 221.745 263.921c-12.859-10.448-31.752-8.497-42.202 4.362s-8.497 31.754 4.362 42.203z" p-id="4970"></path></svg>