<?xml version="1.0" standalone="no"?><!DOCTYPE svg PUBLIC "-//W3C//DTD SVG 1.1//EN" "http://www.w3.org/Graphics/SVG/1.1/DTD/svg11.dtd"><svg t="1517227196229" class="icon" style="" viewBox="0 0 1024 1024" version="1.1" xmlns="http://www.w3.org/2000/svg" p-id="5616" xmlns:xlink="http://www.w3.org/1999/xlink" width="32" height="32"><defs><style type="text/css"></style></defs><path d="M792.258 208.307c0-14.034-11.484-25.514-25.514-25.514H180.488c-14.034 0-25.516 11.48-25.516 25.514v459c0 14.033 11.482 25.516 25.516 25.516h21.784c14.034 0 25.514-11.482 25.514-25.516V282.395c0-14.03 11.481-25.51 25.516-25.51h513.442c14.031 0 25.516-11.482 25.516-25.514v-23.064h-0.002z m47.023 97.737H304.098c-16.432 0-29.752 13.296-29.752 29.722v475.716c0 16.424 13.32 29.725 29.752 29.725h535.207c16.432 0 29.723-13.297 29.723-29.725V335.767c-0.026-16.427-13.319-29.723-29.747-29.723z m-59.472 445.964H363.542V603.371l89.22-89.217 148.66 148.664 89.221-89.191 89.195 89.191v89.189h-0.029v0.001z m-59.471-237.856c-32.857 0-59.441-26.605-59.441-59.444 0-32.884 26.584-59.468 59.441-59.468 32.883 0 59.471 26.584 59.471 59.468 0 32.838-26.588 59.444-59.471 59.444z" p-id="5617"></path></svg>