<?xml version="1.0" standalone="no"?><!DOCTYPE svg PUBLIC "-//W3C//DTD SVG 1.1//EN" "http://www.w3.org/Graphics/SVG/1.1/DTD/svg11.dtd"><svg t="1519637714040" class="icon" style="" viewBox="0 0 1024 1024" version="1.1" xmlns="http://www.w3.org/2000/svg" p-id="7060" xmlns:xlink="http://www.w3.org/1999/xlink" width="200" height="200"><defs><style type="text/css"></style></defs><path d="M889.553 407.777c-37.285-37.626-85.837-60.871-138.927-66.973-6.287-53.26-30.23-102.49-68.982-140.865-45.387-44.944-105.685-69.695-169.787-69.695-64.173 0-124.386 24.185-169.547 68.1-38.835 37.763-62.829 86.587-69.13 139.702-53.04 6.285-101.651 30.202-139.086 68.91-43.443 44.92-67.368 105.013-67.368 169.208 0 68.684 13.502 124.135 40.131 164.813 32.133 49.086 83.052 75.031 147.253 75.031 16.569 0 30-13.432 30-30s-13.431-30-30-30c-44.21 0-75.956-15.666-97.053-47.893-19.843-30.313-30.331-75.941-30.331-131.951 0-100.813 76.775-179.783 174.787-179.783 16.568 0 30-13.431 30-30 0-98.769 79.217-176.138 180.344-176.138 99.491 0 180.433 80.275 180.433 178.946 0 16.568 13.432 30 30 30 99.758 0 174.985 75.805 174.985 176.33 0 56.012-10.488 101.639-30.331 131.951-21.098 32.229-52.844 47.895-97.054 47.895-16.568 0-30 13.432-30 30s13.432 30 30 30c64.201 0 115.121-25.945 147.254-75.033 26.629-40.678 40.131-96.129 40.131-164.813-0.001-64.1-24.051-123.671-67.722-167.742z m-297.39 381.76l-51.343 25.672V532.094c0-16.568-13.432-30-30-30s-30 13.432-30 30v283.115l-51.343-25.672c-14.82-7.408-32.839-1.402-40.249 13.418a29.875 29.875 0 0 0-3.174 13.41c0.007 10.998 6.084 21.586 16.591 26.838l94.759 47.379c0.329 0.164 0.662 0.311 0.994 0.461 0.189 0.086 0.374 0.182 0.564 0.262 0.604 0.262 1.211 0.498 1.822 0.717 0.027 0.01 0.055 0.018 0.082 0.027a31.61 31.61 0 0 0 1.795 0.568c0.096 0.027 0.192 0.049 0.289 0.076 0.539 0.146 1.08 0.279 1.622 0.395 0.121 0.025 0.243 0.051 0.364 0.074 0.527 0.105 1.055 0.197 1.583 0.273l0.388 0.057c0.544 0.07 1.088 0.127 1.632 0.168 0.11 0.008 0.221 0.021 0.332 0.029 0.642 0.041 1.284 0.066 1.925 0.066h0.046c0.641 0 1.282-0.025 1.925-0.066 0.111-0.008 0.222-0.021 0.333-0.029a31.18 31.18 0 0 0 1.631-0.168l0.387-0.057a29.93 29.93 0 0 0 1.588-0.273c0.119-0.025 0.238-0.047 0.356-0.072 0.548-0.117 1.094-0.25 1.638-0.4 0.091-0.023 0.183-0.045 0.272-0.072a30.161 30.161 0 0 0 1.834-0.58c0.014-0.004 0.028-0.008 0.042-0.014a30.15 30.15 0 0 0 1.834-0.721c0.175-0.074 0.345-0.162 0.519-0.24 0.346-0.156 0.692-0.309 1.034-0.48l94.759-47.379c10.507-5.252 16.584-15.84 16.591-26.838a29.872 29.872 0 0 0-3.174-13.41c-7.409-14.821-25.431-20.829-40.248-13.419z" p-id="7061"></path></svg>