<?xml version="1.0" standalone="no"?><!DOCTYPE svg PUBLIC "-//W3C//DTD SVG 1.1//EN" "http://www.w3.org/Graphics/SVG/1.1/DTD/svg11.dtd"><svg t="1515899027216" class="icon" style="" viewBox="0 0 1024 1024" version="1.1" xmlns="http://www.w3.org/2000/svg" p-id="3656" data-spm-anchor-id="a313x.7781069.0.i12" xmlns:xlink="http://www.w3.org/1999/xlink" width="200" height="200"><defs><style type="text/css"></style></defs><path d="M832 194.56h-614.4c-56.32 0-102.4 46.08-102.4 102.4v409.6c0 56.32 46.08 102.4 102.4 102.4h614.4c56.32 0 102.4-46.08 102.4-102.4v-409.6c0-56.32-46.08-102.4-102.4-102.4z m25.6 51.2l-332.8 256-332.8-256h665.6z m-691.2 460.8v-409.6l230.4 179.2-227.84 245.76c-2.56-5.12-2.56-10.24-2.56-15.36z m40.96 48.64l230.4-245.76 87.04 66.56 84.48-66.56 235.52 245.76H207.36z m675.84-48.64c0 5.12 0 10.24-2.56 15.36l-227.84-245.76 230.4-179.2v409.6z" p-id="3657" data-spm-anchor-id="a313x.7781069.0.i10" class="" fill="#DAE0E6"></path></svg>