<?xml version="1.0" standalone="no"?><!DOCTYPE svg PUBLIC "-//W3C//DTD SVG 1.1//EN" "http://www.w3.org/Graphics/SVG/1.1/DTD/svg11.dtd"><svg t="1515813558271" class="icon" style="" viewBox="0 0 1064 1024" version="1.1" xmlns="http://www.w3.org/2000/svg" p-id="26915" xmlns:xlink="http://www.w3.org/1999/xlink" width="207.8125" height="200"><defs><style type="text/css"></style></defs><path d="M-48.606208 883.816448M1041.337344 883.816448M45.560832 852.672512M403.534848 510.895104c0-36.704256 12.394496-67.21024 37.6576-92.474368 25.264128-25.264128 55.771136-37.658624 92.475392-37.658624 36.703232 0 67.211264 12.394496 92.475392 37.658624 25.265152 25.264128 37.6576 55.770112 37.6576 92.474368 0 36.70528-12.393472 67.689472-37.6576 92.952576-25.264128 25.263104-55.77216 37.656576-92.475392 37.656576-36.704256 0-67.331072-12.274688-92.475392-37.656576C415.809536 578.226176 403.534848 547.1232 403.534848 510.895104zM219.547648 595.743744c7.626752 27.169792 19.067904 53.865472 32.89088 78.651392l-85.801984 105.347072 97.241088 97.241088 105.335808-85.801984c24.787968 13.824 51.958784 25.264128 79.128576 33.368064l14.30016 134.421504 140.142592 0 14.30016-134.421504c27.170816-8.103936 52.912128-19.544064 79.127552-33.368064l104.869888 85.801984 98.195456-97.241088-86.278144-105.347072c13.346816-24.78592 25.263104-51.480576 33.364992-78.651392l134.424576-14.777344L980.789248 440.823808l-134.424576-14.30016c-8.101888-27.170816-20.018176-52.434944-33.364992-78.651392l86.278144-105.346048-98.195456-98.195456-104.869888 86.278144c-26.692608-13.34784-51.956736-25.264128-79.127552-33.36704L602.785792 62.818304 462.6432 62.818304l-14.30016 134.423552c-28.12416 8.102912-54.340608 20.020224-79.128576 33.36704l-105.335808-86.278144-97.241088 98.195456 85.801984 105.346048c-13.34784 26.217472-24.787968 51.480576-32.89088 78.651392L84.647936 440.823808l0 140.142592L219.547648 595.743744zM1021.78304 852.672512" p-id="26916"></path></svg>