<?xml version="1.0" standalone="no"?><!DOCTYPE svg PUBLIC "-//W3C//DTD SVG 1.1//EN" "http://www.w3.org/Graphics/SVG/1.1/DTD/svg11.dtd"><svg t="1521081461829" class="icon" style="" viewBox="0 0 1024 1024" version="1.1" xmlns="http://www.w3.org/2000/svg" p-id="3734" xmlns:xlink="http://www.w3.org/1999/xlink" width="200" height="200"><defs><style type="text/css"></style></defs><path d="M798.734 224.743c-44.199-44.18-121.26-44.18-165.48 0L240.91 617.078a28.613 28.613 0 0 0-7.683 13.547l-41.306 165.382c-3.969 15.619 5.473 31.494 21.093 35.48a29.051 29.051 0 0 0 14.309 0.021l165.481-41.345a28.933 28.933 0 0 0 13.537-7.743l392.393-392.285a116.393 116.393 0 0 0 34.25-82.74c0-31.239-12.121-60.562-34.25-82.652zM370.763 735.367L260.44 762.951l27.583-110.295 324.588-324.549 82.69 82.75-324.538 324.51zM757.351 348.79l-20.643 20.624-82.73-82.691 20.662-20.672c22.05-22.052 60.621-22.052 82.711 0 11.065 11.064 17.125 25.696 17.125 41.345 0 15.687-6.06 30.319-17.125 41.394z" p-id="3735"></path></svg>