<?xml version="1.0" standalone="no"?><!DOCTYPE svg PUBLIC "-//W3C//DTD SVG 1.1//EN" "http://www.w3.org/Graphics/SVG/1.1/DTD/svg11.dtd"><svg t="1515811188748" class="icon" style="" viewBox="0 0 1024 1024" version="1.1" xmlns="http://www.w3.org/2000/svg" p-id="4528" xmlns:xlink="http://www.w3.org/1999/xlink" width="200" height="200"><defs><style type="text/css"></style></defs><path d="M684.8 537.6c6.4 12.8 19.2 19.2 32 12.8l262.4-134.4 0 358.4c0 38.4-32 70.4-70.4 70.4L121.6 844.8c-38.4 0-70.4-32-70.4-70.4L51.2 416l262.4 134.4c12.8 6.4 25.6 0 32-12.8 6.4-12.8 0-25.6-12.8-32L0 332.8l0 441.6c0 64 51.2 121.6 121.6 121.6l780.8 0c64 0 121.6-51.2 121.6-121.6L1024 332.8l-332.8 166.4C678.4 512 678.4 524.8 684.8 537.6z" p-id="4529"></path><path d="M25.6 307.2c12.8 0 25.6-12.8 25.6-25.6 0-38.4 32-70.4 70.4-70.4l780.8 0c38.4 0 70.4 32 70.4 70.4 0 12.8 12.8 25.6 25.6 25.6 12.8 0 25.6-12.8 25.6-25.6 0-64-51.2-121.6-121.6-121.6L121.6 160C51.2 160 0 211.2 0 281.6 0 294.4 12.8 307.2 25.6 307.2z" p-id="4530"></path><path d="M537.6 460.8c0 12.8 0 19.2 0 19.2l0 0c0-6.4-6.4-12.8-12.8-12.8C524.8 460.8 518.4 460.8 505.6 460.8c-19.2 0-32 6.4-44.8 25.6C448 499.2 448 518.4 448 537.6 448 556.8 448 569.6 460.8 582.4c6.4 12.8 19.2 12.8 32 12.8 19.2 0 38.4-12.8 44.8-38.4l0 0c0 25.6 12.8 38.4 32 38.4 19.2 0 32-6.4 44.8-25.6C627.2 556.8 633.6 537.6 633.6 512c0-32-12.8-57.6-32-76.8C576 409.6 544 403.2 512 403.2c-38.4 0-70.4 12.8-89.6 38.4C396.8 460.8 384 492.8 384 531.2c0 38.4 12.8 64 32 89.6 25.6 19.2 51.2 32 89.6 32 25.6 0 51.2-6.4 64-12.8L569.6 620.8C556.8 627.2 531.2 633.6 512 633.6c-32 0-57.6-6.4-76.8-25.6C416 582.4 409.6 563.2 409.6 531.2c0-32 12.8-57.6 32-76.8C454.4 428.8 480 422.4 512 422.4c32 0 57.6 6.4 70.4 25.6 19.2 19.2 25.6 38.4 25.6 64 0 19.2-6.4 32-12.8 44.8C588.8 569.6 582.4 576 569.6 576 556.8 576 556.8 563.2 556.8 544c0 0 0-32 6.4-83.2L537.6 460.8zM524.8 556.8C518.4 569.6 505.6 576 492.8 576 486.4 576 480 569.6 473.6 563.2 467.2 556.8 467.2 550.4 467.2 537.6c0-19.2 6.4-32 12.8-44.8 6.4-12.8 19.2-19.2 32-19.2 19.2 0 25.6 12.8 25.6 32C537.6 531.2 531.2 544 524.8 556.8z" p-id="4531"></path></svg>